# xmcd CD database file
#
# Track frame offsets:
#	150
#	14408
#	30211
#	41847
#	56494
#	71704
#	87163
#	101129
#	116170
#	136660
#	153441
#
# Disc length: 2275 seconds
#
# Revision: 0
# Processed by: cddbd v1.5.2PL0 Copyright (c) Steve Scherf et al.
# Submitted via: CDex 1.51
#
DISCID=8c08e10b
DTITLE=Kevin Sharp - Measure Of A Man
DYEAR=1996
DGENRE=Country
TTITLE0=Measure Of A Man
TTITLE1=Nobody Knows
TTITLE2=If You Love Somebody
TTITLE3=There's Only You
TTITLE4=She's Sure Taking It Well
TTITLE5=The Strength Of Love
TTITLE6=Love Bomb
TTITLE7=I'm Already Loving You Too Much
TTITLE8=Population 4000 Minus 1
TTITLE9=Somebody's Baby
TTITLE10=Love At The End Of The Road
EXTD=YEAR: 1996
EXTT0=
EXTT1=
EXTT2=
EXTT3=
EXTT4=
EXTT5=
EXTT6=
EXTT7=
EXTT8=
EXTT9=
EXTT10=
PLAYORDER=
